<?xml version="1.0" encoding="UTF-8"?>
<svg width="520" height="300" viewBox="0 0 520 300" fill="none" xmlns="http://www.w3.org/2000/svg" role="img" aria-labelledby="title desc">
  <title id="title">Most Used Languages</title>
  <desc id="desc">Private-aware language usage generated from accessible repositories.</desc>
  <style>
    .title { font: 700 24px -apple-system, BlinkMacSystemFont, "Segoe UI", sans-serif; fill: #c792ea; }
    .lang { font: 600 14px -apple-system, BlinkMacSystemFont, "Segoe UI", sans-serif; fill: #82aaff; }
  </style>
  <rect x="0.5" y="0.5" width="519" height="299" rx="8" fill="#1b1e2b" stroke="#82aaff"/>
  <text x="40" y="42" class="title">Most Used Languages</text>
  <rect x="40" y="70" width="252.98626324673586" height="12" rx="6" fill="#f1e05a"/><rect x="292.98626324673586" y="70" width="140.4659065451241" height="12" rx="6" fill="#e34c26"/><rect x="433.45216979186" y="70" width="15.780430801262547" height="12" rx="6" fill="#3178c6"/><rect x="449.2326005931225" y="70" width="15.47983257708116" height="12" rx="6" fill="#3572A5"/><rect x="464.71243317020367" y="70" width="9.343269478884704" height="12" rx="6" fill="#563d7c"/><rect x="474.05570264908835" y="70" width="4.673911998716454" height="12" rx="6" fill="#00ADD8"/><rect x="478.7296146478048" y="70" width="2" height="12" rx="6" fill="#dea584"/><rect x="480.7296146478048" y="70" width="2" height="12" rx="6" fill="#89e051"/>
  
        <circle cx="42" cy="118" r="6" fill="#f1e05a"/>
        <text x="60" y="122" class="lang">TypeScript 57.5%</text>
        <circle cx="272" cy="118" r="6" fill="#e34c26"/>
        <text x="290" y="122" class="lang">JavaScript 31.9%</text>
        <circle cx="42" cy="152" r="6" fill="#3178c6"/>
        <text x="60" y="156" class="lang">HTML 3.6%</text>
        <circle cx="272" cy="152" r="6" fill="#3572A5"/>
        <text x="290" y="156" class="lang">CSS 3.5%</text>
        <circle cx="42" cy="186" r="6" fill="#563d7c"/>
        <text x="60" y="190" class="lang">EJS 2.1%</text>
        <circle cx="272" cy="186" r="6" fill="#00ADD8"/>
        <text x="290" y="190" class="lang">Java 1.1%</text>
        <circle cx="42" cy="220" r="6" fill="#dea584"/>
        <text x="60" y="224" class="lang">Bicep 0.2%</text>
        <circle cx="272" cy="220" r="6" fill="#89e051"/>
        <text x="290" y="224" class="lang">Kotlin 0.1%</text>
</svg>
